# xmcd CD database file
#
# Track frame offsets:
#	150
#	5758
#	37606
#	85051
#	120353
#	160494
#	196824
#	214909
#	290262
#
# Disc length: 4388 seconds
#
# Revision: 0
# Processed by: cddbd v1.4PL0 Copyright (c) Steve Scherf et al.
# Submitted via: CDex 1.50beta8
#
DISCID=6d112209
DTITLE=Henri Texier - Strings Spirit
DYEAR=2002
DGENRE=Jazz
TTITLE0=Armoire dog
TTITLE1=Tonic Tony
TTITLE2=Serious Seb
TTITLE3=Glenn the space
TTITLE4=Dezarwa (for A.T.)
TTITLE5=B.Z. the bee
TTITLE6=Colonel Skopje
TTITLE7=Sacrifice
TTITLE8=Barth's groove
EXTD=YEAR: 2002
EXTT0=
EXTT1=
EXTT2=
EXTT3=
EXTT4=
EXTT5=
EXTT6=
EXTT7=
EXTT8=
PLAYORDER=
